<svg xmlns="http://www.w3.org/2000/svg" xmlns:xlink="http://www.w3.org/1999/xlink" id="Ebene_1" viewBox="0 0 2313.88 1067.51"><defs fill="#000000"><style>.cls-1{fill:url(#Unbenannter_Verlauf_45-2);}.cls-2{fill:url(#Unbenannter_Verlauf_45);}</style><linearGradient id="Unbenannter_Verlauf_45" x1="619.8" y1="811.81" x2="619.8" y2="411.8" gradientTransform="matrix(1, 0, 0, 1, 0, 0)" gradientUnits="userSpaceOnUse" fill="#000000"><stop offset="0" stop-color="#000000" fill="#000000"/><stop offset="1" stop-color="#000000" fill="#000000"/></linearGradient><linearGradient id="Unbenannter_Verlauf_45-2" x1="1827.55" y1="1067.51" x2="1827.55" y2="0" xlink:href="#Unbenannter_Verlauf_45" fill="#000000"/></defs><path class="cls-2" d="M646.41,432.55c-24.05-11.77-51.75-17.56-87.33-18.23h-122.78c-13.96,.04-25.32,11.42-25.32,25.38v10.8c0,13.55,10.65,24.82,24.26,25.67,.88,.05,1.75,.08,2.63,.08,12.85,0,25.76,.06,38.7,.11h1.48c25.17,.11,51.2,.22,76.44-.11,23.06,0,40.34,2.62,56.12,8.54,21.65,7.8,34.75,20.65,41.27,40.6,4.32,12.57,5.53,26.08,3.69,41.25-2.87,22.98-13.86,40.08-32.63,50.8-15.65,8.83-34.09,13.3-54.93,13.31-43.17,.51-87.38,.51-130.14,.51-14.83,0-26.89,12.06-26.89,26.89v119.16c0,17.64,14.35,31.98,31.98,31.98s31.98-14.35,31.98-31.98v-84.63h82.81c26.02,.54,51.4-3.41,75.39-11.77,37.4-13.06,63.9-38.39,78.82-75.37,7.4-19.03,9.9-39.82,7.88-65.38-3.55-49.7-28.26-85.9-73.44-107.61Zm160.92-18.23c-17.78,0-32.24,14.46-32.24,32.24v330.5c0,17.78,14.46,32.24,32.24,32.24s32.24-14.46,32.24-32.24V446.56c0-17.78-14.46-32.24-32.24-32.24Zm420.06,306.92c-10.13-10.64-26.65-12.59-39.28-4.65l-1.49,1.01c-2.2,1.65-4.33,3.35-6.47,5.06-3.54,2.83-6.88,5.5-10.23,7.59-19.05,11.11-39.06,17.39-59.45,18.67-49.66,2.94-88.54-10.78-118.76-41.83-14.16-15.08-24.17-32.08-29.77-50.58-8.15-26.28-9.07-53.18-2.72-79.94,7.45-31.11,24.7-56.7,51.27-76.07l.07-.06c23.63-17.62,51.84-26.78,83.72-27.25,33.63,0,61.07,8.12,83.9,24.84,4.27,3.11,8.83,6.76,12.5,9.71,9.19,7.39,22.2,7,30.95-.92l10.17-9.22c4.79-4.34,7.63-10.53,7.79-16.98,.16-6.46-2.32-12.75-6.71-17.15-17.09-17.68-37.15-30.45-59.49-37.92-43.67-15.3-87.93-17.87-131.65-7.61-54.12,13.53-95.96,44.4-124.35,91.73-37.46,62.04-34.23,156.49,7.29,214.96,31.65,45.53,75.61,73.75,130.78,83.88,13.09,2.18,26.35,3.29,39.4,3.29,16.98,0,34.01-1.87,50.76-5.6,29.55-7.09,55.47-19.7,77.14-37.58l.28-.24c1.23-1.07,2.42-2.18,3.57-3.29,12.23-11.79,12.64-31.38,.97-43.64l-.21-.22ZM330.35,506.83l10.17-9.22c4.79-4.34,7.63-10.53,7.79-16.98,.16-6.46-2.32-12.75-6.71-17.15-17.09-17.68-37.15-30.45-59.49-37.92-43.67-15.3-87.93-17.87-131.65-7.61-54.12,13.53-95.96,44.4-124.35,91.73-37.46,62.04-34.23,156.49,7.29,214.96,31.65,45.53,75.61,73.75,130.78,83.88,13.09,2.18,26.35,3.29,39.4,3.29,16.98,0,34.01-1.87,50.76-5.6,29.55-7.09,55.47-19.7,77.14-37.58l.28-.24c1.23-1.07,2.42-2.18,3.57-3.29,12.23-11.79,12.64-31.38,.97-43.64l-.21-.22c-10.13-10.64-26.65-12.59-39.28-4.65l-1.49,1.01c-2.2,1.65-4.33,3.35-6.47,5.06-3.54,2.83-6.88,5.5-10.23,7.59-19.05,11.11-39.06,17.39-59.45,18.67-49.66,2.94-88.54-10.78-118.76-41.83-14.16-15.08-24.17-32.08-29.77-50.58-8.15-26.28-9.07-53.18-2.72-79.94,7.45-31.11,24.7-56.7,51.27-76.07l.07-.06c23.63-17.62,51.84-26.78,83.72-27.25,33.63,0,61.07,8.12,83.9,24.84,4.27,3.11,8.83,6.76,12.5,9.71,9.19,7.39,22.2,7,30.95-.92Zm-60.84,66.09H138.79c-19.34,0-35.02,15.68-35.02,35.01h0c0,19.34,15.68,35.02,35.02,35.02h130.72c19.34,0,35.02-15.68,35.02-35.02h0c0-19.34-15.68-35.02-35.02-35.02Z" fill="#000000"/><path class="cls-1" d="M1517.28,150.39l-18.12-36.97-36.97,18.12,18.12,36.97,36.97-18.12Zm60.56,60.12l36.97-18.12-18.12-36.97-36.97,18.12,18.12,36.97Zm477.49,811.81l18.12,36.97,36.97-18.12-18.12-36.97-36.97,18.12Zm203.47-284.18l18.12,36.97,36.97-18.12-18.12-36.97-36.97,18.12Zm-179.96,216.71l18.12,36.97,36.97-18.12-18.12-36.97-36.97,18.12Zm87.75,75.68l18.12,36.97,36.97-18.12-18.12-36.97-36.97,18.12Zm74.6-375.11l-124.41-253.86,150.36,306.83,40.26-19.73-56.5-115.3,39.88-19.54-165.28-337.28-39.88,19.54-48.4-98.77-40.26,19.73-15.07-30.75-40.26,19.73-26.19-53.44-39.5,19.36,203.64,417.5h-149.79l-229.02-463.17-38.62,18.92,24.56,50.12-40.26,19.73,16,32.65-40.26,19.73,14.52,29.62-40.26,19.73-19.35-39.48-40.26,19.73-20.66-42.15-40.26,19.73,71.46,145.82-112.9-230.39-40.26,19.73,70.94,144.75-40.26,19.73,30.8,62.85-40.26,19.73,20,40.8-40.26,19.73-13.65-27.86-40.26,19.73,49.48,100.97-40.26,19.73,76.66,156.44,263.7-480.35,341.05,692.7,39.17-19.2-23.7-48.36,40.26-19.73,40.45,82.54,40.26-19.73,19.82,40.45,40.26-19.73-122.4-249.77h-99.87l-52.62-107.16h149.9l52.51,107.16h-49.93l63.18,128.92,40.26-19.73,39.4,80.4,40.26-19.73-88.15-179.89,40.26-19.73Zm-448.36,104.97h-181.95l47.62-92.32h88.9l-66.18-134.51-184.19,335.52,25.75,52.55,40.26-19.73,34.95,71.32,40.26-19.73,25.99,53.04,40.26-19.73-24.02-49.02,40.26-19.73,34.76,70.92,40.26-19.73,25.39,51.82,40.26-19.73,14.91,30.42,40.26-19.73-4.2-8.56-119.58-243.06ZM1594.64,36.97L1576.52,0l-36.97,18.12,18.12,36.97,36.97-18.12Z" fill="#000000"/></svg>